# xmcd
#
# Track frame offsets:
#   150
#   17558
#   34548
#   49142
#   66248
#   80866
#   94112
#   110103
#   134197
#   151514
#   168385
#   184158
#   201336
#   215997
#   234592
#   251387
#   269503
#   288621
#   305549
#   322799
#   340627
#
# Disc length: 4766 seconds
#
# Revision: 0
# Processed by: cddbd v1.5.1PL0 Copyright (c) Steve Scherf et al.
# Submitted via: Media_Universe 3.0
#
DISCID=3a129c15
DTITLE=Mixed Country - Mixed Country
DYEAR=1900
DGENRE=Country
TTITLE0=Send Down An Angel
TTITLE1=Walk A Little Straighter Daddy
TTITLE2=I Got A Feeling
TTITLE3=Something To Talk About
TTITLE4=You Can't Take The Honky Tonk Out Of The Girl
TTITLE5=That's What She Gets (for loving me)
TTITLE6=Sweet Southern Comfort
TTITLE7=By The Time I Get To Georgia
TTITLE8=Complicated
TTITLE9=I Don't Want You To Go
TTITLE10=Simple Life
TTITLE11=Back Of The Bottom Draw
TTITLE12=Woman In The Moon
TTITLE13=Just Like Jesse James
TTITLE14=Strong Enough
TTITLE15=Chicks Dig It
TTITLE16=Cadillac Ranch
TTITLE17=Five Dollar Fine
TTITLE18=What Was I Thinking
TTITLE19=Landslide
TTITLE20=Long Time Gone
EXTD=
EXTT0=
EXTT1=
EXTT2=
EXTT3=
EXTT4=
EXTT5=
EXTT6=
EXTT7=
EXTT8=
EXTT9=
EXTT10=
EXTT11=
EXTT12=
EXTT13=
EXTT14=
EXTT15=
EXTT16=
EXTT17=
EXTT18=
EXTT19=
EXTT20=
PLAYORDER=
